<svg xmlns="http://www.w3.org/2000/svg" viewBox="0 0 533.5 544.3" aria-hidden="true" focusable="false">
  <path d="M533.5 278.4c0-17.4-1.6-34.1-4.7-50.3H272v95.1h146.9c-6.3 34.3-25.3 63.3-54 82.8v68.7h87.3c51.1-47.1 81.3-116.6 81.3-196.3z" fill="#4285F4"/>
  <path d="M272 544.3c73.5 0 135.3-24.3 180.4-66.2l-87.3-68.7c-24.3 16.3-55.4 25.9-93.1 25.9-71.5 0-132.1-48.2-153.8-113.1H28.7v71.1C73.4 485.2 166.4 544.3 272 544.3z" fill="#34A853"/>
  <path d="M118.2 321.9c-10.4-30.9-10.4-64.7 0-95.6V155.2H28.7c-38.3 76.5-38.3 167.4 0 243.9l89.5-77.2z" fill="#FBBC05"/>
  <path d="M272 106.2c39.9-.6 77.9 14.7 106.9 42.9l79.9-79.9C407.3 20.3 343.6-.1 272 0 166.4 0 73.4 59.1 28.7 155.2l89.5 71.1C139.9 154.4 200.5 106.2 272 106.2z" fill="#EA4335"/>
</svg>
